<?xml version="1.0" encoding="UTF-8" standalone="no"?>
<svg
   xmlns:svg="http://www.w3.org/2000/svg"
   xmlns="http://www.w3.org/2000/svg"
   version="1.1"
   height="68.913368"
   width="56.368126">
  <g
     transform="translate(-304.86281,-402.0625)">
    <path
       style="fill:#999;"
       d="m 329.6298,422.6619 c -1.69039,0.34961 -2.54235,0.86611 -3.96146,1.74841 l -0.002,-0.0297 -4.71875,-4.625 -5,5 4.6875,4.625 0.0297,-0.0297 c -0.89123,1.42626 -1.39651,2.54376 -1.74841,4.24524 l 0,0.003 -6.59375,0 0,7.0625 6.78125,0 0,10e-4 c 0.38125,1.45445 0.99725,2.69794 1.78125,3.93623 l -4.8125,4.6875 5,5.03125 4.875,-4.84375 c 1.12809,0.64154 2.36522,1.11604 3.65625,1.4375 l 0,6.84375 7.09375,0 0,-6.875 c 1.3935,-0.3554 2.70717,-0.89881 3.90625,-1.625 l 4.75,4.90625 5,-5 -4.90625,-4.71875 c 0.69048,-1.12266 1.22813,-2.35851 1.59375,-3.65625 l 6.96875,0 0,-7.09375 -6.65625,0 3.7e-4,-0.003 c -0.29935,-1.46288 -0.85897,-2.6063 -1.56282,-3.87246 l 4.8125,-4.875 -5,-5.03125 -4.65625,4.75 c -1.3314,-0.85565 -2.63479,-1.45925 -4.21685,-1.84343 l -0.0331,-0.0316 0,-6.625 -7.09375,0 -5e-5,0 0.0625,6.5"
       />
    <path
       style="fill:#fff"
       d="m 106.16072,-3.4080608 a 5.3571429,5.3571429 0 1 1 -10.714289,0 5.3571429,5.3571429 0 1 1 10.714289,0 z"
       transform="translate(232.63519,440.35387)" />
  </g>
</svg>