<?xml version="1.0" encoding="UTF-8" standalone="no"?>
<!-- Created with Inkscape (http://www.inkscape.org/) -->

<svg
   xmlns:dc="http://purl.org/dc/elements/1.1/"
   xmlns:cc="http://creativecommons.org/ns#"
   xmlns:rdf="http://www.w3.org/1999/02/22-rdf-syntax-ns#"
   xmlns:svg="http://www.w3.org/2000/svg"
   xmlns="http://www.w3.org/2000/svg"
   xmlns:sodipodi="http://sodipodi.sourceforge.net/DTD/sodipodi-0.dtd"
   xmlns:inkscape="http://www.inkscape.org/namespaces/inkscape"
   sodipodi:docname="api.svg"
   inkscape:version="0.48.4 r9939"
   version="1.1"
   id="svg2"
   height="68.913368"
   width="56.368126">
  <sodipodi:namedview
     id="base"
     pagecolor="#ffffff"
     bordercolor="#666666"
     borderopacity="1.0"
     inkscape:pageopacity="0.0"
     inkscape:pageshadow="2"
     inkscape:zoom="11.2"
     inkscape:cx="43.366637"
     inkscape:cy="32.479437"
     inkscape:document-units="px"
     inkscape:current-layer="layer1"
     showgrid="true"
     inkscape:snap-global="false"
     inkscape:window-width="1691"
     inkscape:window-height="1107"
     inkscape:window-x="1389"
     inkscape:window-y="164"
     inkscape:window-maximized="0"
     fit-margin-top="10"
     fit-margin-left="10"
     fit-margin-right="10"
     fit-margin-bottom="10"
     showguides="true"
     inkscape:guide-bbox="true">
    <inkscape:grid
       type="xygrid"
       id="grid2985"
       units="mm"
       empspacing="1"
       visible="true"
       enabled="true"
       snapvisiblegridlinesonly="true"
       originx="-86.03906mm"
       originy="-164.08014mm" />
  </sodipodi:namedview>
  <defs
     id="defs4" />
  <metadata
     id="metadata7">
    <rdf:RDF>
      <cc:Work
         rdf:about="">
        <dc:format>image/svg+xml</dc:format>
        <dc:type
           rdf:resource="http://purl.org/dc/dcmitype/StillImage" />
        <dc:title />
      </cc:Work>
    </rdf:RDF>
  </metadata>
  <g
     inkscape:label="Layer 1"
     inkscape:groupmode="layer"
     id="layer1"
     transform="translate(-304.86281,-402.0625)">
    <g
       transform="translate(76.645278,28.245026)"
       inkscape:label="Gear8"
       id="g3975">
      <path
         d="M0.934,-0.200L1.170,-0.251L1.249,-0.248L1.589,-0.086L1.589,0.086L1.249,0.248L1.170,0.251L0.934,0.200L0.802,0.519L1.005,0.650L1.059,0.707L1.185,1.063L1.063,1.185L0.707,1.059L0.650,1.005L0.519,0.802L0.200,0.934L0.251,1.170L0.248,1.249L0.086,1.589L-0.086,1.589L-0.248,1.249L-0.251,1.170L-0.200,0.934L-0.519,0.802L-0.650,1.005L-0.707,1.059L-1.063,1.185L-1.185,1.063L-1.059,0.707L-1.005,0.650L-0.802,0.519L-0.934,0.200L-1.170,0.251L-1.249,0.248L-1.589,0.086L-1.589,-0.086L-1.249,-0.248L-1.170,-0.251L-0.934,-0.200L-0.802,-0.519L-1.005,-0.650L-1.059,-0.707L-1.185,-1.063L-1.063,-1.185L-0.707,-1.059L-0.650,-1.005L-0.519,-0.802L-0.200,-0.934L-0.251,-1.170L-0.248,-1.249L-0.086,-1.589L0.086,-1.589L0.248,-1.249L0.251,-1.170L0.200,-0.934L0.519,-0.802L0.650,-1.005L0.707,-1.059L1.063,-1.185L1.185,-1.063L1.059,-0.707L1.005,-0.650L0.802,-0.519z"
         style="stroke:#000000;fill:none"
         id="path3977" />
    </g>
    <g
       id="g4021"
       inkscape:label="Gear8"
       transform="translate(76.645278,28.245026)">
      <path
         id="path4023"
         style="stroke:#000000;fill:none"
         d="M0.934,-0.200L1.170,-0.251L1.249,-0.248L1.589,-0.086L1.589,0.086L1.249,0.248L1.170,0.251L0.934,0.200L0.802,0.519L1.005,0.650L1.059,0.707L1.185,1.063L1.063,1.185L0.707,1.059L0.650,1.005L0.519,0.802L0.200,0.934L0.251,1.170L0.248,1.249L0.086,1.589L-0.086,1.589L-0.248,1.249L-0.251,1.170L-0.200,0.934L-0.519,0.802L-0.650,1.005L-0.707,1.059L-1.063,1.185L-1.185,1.063L-1.059,0.707L-1.005,0.650L-0.802,0.519L-0.934,0.200L-1.170,0.251L-1.249,0.248L-1.589,0.086L-1.589,-0.086L-1.249,-0.248L-1.170,-0.251L-0.934,-0.200L-0.802,-0.519L-1.005,-0.650L-1.059,-0.707L-1.185,-1.063L-1.063,-1.185L-0.707,-1.059L-0.650,-1.005L-0.519,-0.802L-0.200,-0.934L-0.251,-1.170L-0.248,-1.249L-0.086,-1.589L0.086,-1.589L0.248,-1.249L0.251,-1.170L0.200,-0.934L0.519,-0.802L0.650,-1.005L0.707,-1.059L1.063,-1.185L1.185,-1.063L1.059,-0.707L1.005,-0.650L0.802,-0.519z" />
    </g>
    <path
       style="fill:none;stroke:#d8d8d8;stroke-width:1.25;stroke-linecap:round;stroke-linejoin:round;stroke-miterlimit:4;stroke-opacity:1"
       d="m 329.6298,422.6619 c -1.69039,0.34961 -2.54235,0.86611 -3.96146,1.74841 l -0.002,-0.0297 -4.71875,-4.625 -5,5 4.6875,4.625 0.0297,-0.0297 c -0.89123,1.42626 -1.39651,2.54376 -1.74841,4.24524 l 0,0.003 -6.59375,0 0,7.0625 6.78125,0 0,10e-4 c 0.38125,1.45445 0.99725,2.69794 1.78125,3.93623 l -4.8125,4.6875 5,5.03125 4.875,-4.84375 c 1.12809,0.64154 2.36522,1.11604 3.65625,1.4375 l 0,6.84375 7.09375,0 0,-6.875 c 1.3935,-0.3554 2.70717,-0.89881 3.90625,-1.625 l 4.75,4.90625 5,-5 -4.90625,-4.71875 c 0.69048,-1.12266 1.22813,-2.35851 1.59375,-3.65625 l 6.96875,0 0,-7.09375 -6.65625,0 3.7e-4,-0.003 c -0.29935,-1.46288 -0.85897,-2.6063 -1.56282,-3.87246 l 4.8125,-4.875 -5,-5.03125 -4.65625,4.75 c -1.3314,-0.85565 -2.63479,-1.45925 -4.21685,-1.84343 l -0.0331,-0.0316 0,-6.625 -7.09375,0 -5e-5,0 0.0625,6.5"
       id="path3931"
       inkscape:connector-curvature="0"
       sodipodi:nodetypes="cccccccccccccccccccccccccccccccccccccccc" />
    <path
       sodipodi:type="arc"
       style="fill:none;stroke:#d8d8d8;stroke-width:1.25;stroke-linecap:round;stroke-linejoin:round;stroke-miterlimit:4;stroke-opacity:1;stroke-dasharray:none"
       id="path4243"
       sodipodi:cx="100.80357"
       sodipodi:cy="-3.4080608"
       sodipodi:rx="5.3571429"
       sodipodi:ry="5.3571429"
       d="m 106.16072,-3.4080608 a 5.3571429,5.3571429 0 1 1 -10.714289,0 5.3571429,5.3571429 0 1 1 10.714289,0 z"
       transform="translate(232.63519,440.35387)" />
  </g>
  <g
     transform="translate(76.645278,28.245026)"
     inkscape:label="Gear8"
     id="g4145" />
</svg>
