<?xml version="1.0" encoding="UTF-8" standalone="no"?>
<svg
   xmlns:dc="http://purl.org/dc/elements/1.1/"
   xmlns:cc="http://creativecommons.org/ns#"
   xmlns:rdf="http://www.w3.org/1999/02/22-rdf-syntax-ns#"
   xmlns:svg="http://www.w3.org/2000/svg"
   xmlns="http://www.w3.org/2000/svg"
   id="svg8"
   version="1.1"
   viewBox="0 0 4.233333 4.233333"
   height="16"
   width="16">
  <defs
     id="defs2" />
  <metadata
     id="metadata5">
    <rdf:RDF>
      <cc:Work
         rdf:about="">
        <dc:format>image/svg+xml</dc:format>
        <dc:type
           rdf:resource="http://purl.org/dc/dcmitype/StillImage" />
        <dc:title></dc:title>
      </cc:Work>
    </rdf:RDF>
  </metadata>
  <path
     id="path820"
     d="M 2.2489581,0.26458331 A 1.8520831,1.8520831 0 0 0 0.41754554,1.8520832 H 0.13229166 L 0.92604155,2.9104164 1.7197915,1.8520832 H 1.3616738 A 0.92604159,0.92604159 0 0 1 2.2489581,1.1906249 0.92604159,0.92604159 0 0 1 3.1749997,2.1166665 0.92604159,0.92604159 0 0 1 2.2489581,3.0427081 0.92604159,0.92604159 0 0 1 1.5947345,2.77089 L 0.93999425,3.4256305 A 1.8520831,1.8520831 0 0 0 2.2489581,3.9687497 1.8520831,1.8520831 0 0 0 4.1010413,2.1166665 1.8520831,1.8520831 0 0 0 2.2489581,0.26458331 Z"
     style="fill:#ffffff;fill-opacity:1;stroke-width:0.26458332" />
</svg>
